<svg xmlns="http://www.w3.org/2000/svg" viewBox="0 0 1600 900" role="img" aria-labelledby="title desc">
<title>Chatbot CRM dashboard cover</title>
<desc>Illustrated SaaS dashboard and widget preview for chatbot CRM platform.</desc>
<defs>
<linearGradient id="bg" x1="0%" y1="0%" x2="100%" y2="100%">
<stop offset="0%" stop-color="#08111f"/>
<stop offset="55%" stop-color="#0f172a"/>
<stop offset="100%" stop-color="#0b1220"/>
</linearGradient>
<linearGradient id="glass" x1="0%" y1="0%" x2="100%" y2="100%">
<stop offset="0%" stop-color="#1e293b" stop-opacity=".96"/>
<stop offset="100%" stop-color="#111827" stop-opacity=".94"/>
</linearGradient>
<linearGradient id="accent" x1="0%" y1="0%" x2="100%" y2="100%">
<stop offset="0%" stop-color="#22c55e"/>
<stop offset="55%" stop-color="#06b6d4"/>
<stop offset="100%" stop-color="#3b82f6"/>
</linearGradient>
</defs>
<rect width="1600" height="900" fill="url(#bg)"/>
<circle cx="1320" cy="120" r="180" fill="#06b6d4" opacity=".12"/>
<circle cx="260" cy="760" r="200" fill="#22c55e" opacity=".08"/>
<rect x="90" y="90" width="980" height="720" rx="40" fill="url(#glass)" stroke="rgba(255,255,255,.09)"/>
<rect x="130" y="136" width="900" height="64" rx="22" fill="#0b1220"/>
<rect x="160" y="158" width="180" height="20" rx="10" fill="#22c55e"/>
<rect x="720" y="156" width="120" height="24" rx="12" fill="#1f2937"/>
<rect x="858" y="156" width="120" height="24" rx="12" fill="#1f2937"/>
<rect x="130" y="240" width="230" height="520" rx="28" fill="#0b1220"/>
<rect x="388" y="240" width="642" height="520" rx="28" fill="#101a2a"/>
<rect x="160" y="280" width="170" height="18" rx="9" fill="#334155"/>
<rect x="160" y="324" width="138" height="14" rx="7" fill="#1f2937"/>
<rect x="160" y="360" width="150" height="14" rx="7" fill="#1f2937"/>
<rect x="160" y="396" width="128" height="14" rx="7" fill="#1f2937"/>
<rect x="160" y="470" width="170" height="92" rx="22" fill="url(#accent)" opacity=".9"/>
<rect x="160" y="590" width="170" height="92" rx="22" fill="#111827" stroke="rgba(255,255,255,.07)"/>
<rect x="430" y="282" width="220" height="120" rx="24" fill="#111827" stroke="rgba(255,255,255,.06)"/>
<rect x="676" y="282" width="150" height="120" rx="24" fill="#111827" stroke="rgba(255,255,255,.06)"/>
<rect x="852" y="282" width="140" height="120" rx="24" fill="#111827" stroke="rgba(255,255,255,.06)"/>
<rect x="430" y="438" width="562" height="110" rx="26" fill="#111827" stroke="rgba(255,255,255,.06)"/>
<rect x="430" y="584" width="320" height="136" rx="26" fill="#111827" stroke="rgba(255,255,255,.06)"/>
<rect x="778" y="584" width="214" height="136" rx="26" fill="#111827" stroke="rgba(255,255,255,.06)"/>
<rect x="470" y="320" width="100" height="16" rx="8" fill="#334155"/>
<rect x="470" y="352" width="130" height="36" rx="18" fill="#22c55e" opacity=".25"/>
<rect x="704" y="316" width="66" height="50" rx="16" fill="#06b6d4" opacity=".28"/>
<rect x="880" y="314" width="82" height="18" rx="9" fill="#334155"/>
<rect x="880" y="350" width="76" height="18" rx="9" fill="#3b82f6" opacity=".35"/>
<path d="M472 492h140l80-28 88 38 176-66" fill="none" stroke="url(#accent)" stroke-width="16" stroke-linecap="round" stroke-linejoin="round"/>
<circle cx="472" cy="492" r="10" fill="#22c55e"/>
<circle cx="612" cy="492" r="10" fill="#06b6d4"/>
<circle cx="692" cy="464" r="10" fill="#3b82f6"/>
<circle cx="780" cy="502" r="10" fill="#22c55e"/>
<circle cx="956" cy="436" r="10" fill="#06b6d4"/>
<rect x="470" y="618" width="186" height="20" rx="10" fill="#334155"/>
<rect x="470" y="658" width="240" height="14" rx="7" fill="#1f2937"/>
<rect x="470" y="690" width="192" height="14" rx="7" fill="#1f2937"/>
<rect x="814" y="618" width="128" height="20" rx="10" fill="#334155"/>
<rect x="814" y="658" width="108" height="14" rx="7" fill="#1f2937"/>
<rect x="814" y="690" width="138" height="14" rx="7" fill="#1f2937"/>
<rect x="1120" y="176" width="360" height="548" rx="38" fill="#0b1220" stroke="rgba(255,255,255,.08)"/>
<rect x="1160" y="222" width="280" height="54" rx="22" fill="url(#accent)"/>
<rect x="1160" y="312" width="230" height="84" rx="26" fill="#111827" stroke="rgba(255,255,255,.06)"/>
<rect x="1264" y="418" width="176" height="84" rx="26" fill="#111827" stroke="rgba(255,255,255,.06)"/>
<rect x="1160" y="524" width="280" height="126" rx="28" fill="#111827" stroke="rgba(255,255,255,.06)"/>
<circle cx="1210" cy="352" r="22" fill="#22c55e"/>
<rect x="1246" y="338" width="116" height="16" rx="8" fill="#334155"/>
<rect x="1246" y="366" width="86" height="12" rx="6" fill="#1f2937"/>
<circle cx="1308" cy="460" r="22" fill="#06b6d4"/>
<rect x="1344" y="446" width="60" height="16" rx="8" fill="#334155"/>
<rect x="1344" y="474" width="78" height="12" rx="6" fill="#1f2937"/>
<rect x="1196" y="562" width="150" height="18" rx="9" fill="#334155"/>
<rect x="1196" y="598" width="208" height="14" rx="7" fill="#1f2937"/>
<rect x="1196" y="630" width="180" height="14" rx="7" fill="#1f2937"/>
</svg>
